#!OML:ASF H:\charlestonDancing\Project 1\Capture day 1\Session 1\femaleDancer.ASF
:FULLY-SPECIFIED
:DEGREES
359
root -1.76128 17.5617 5.10437 521.045 -75.4837 -520.18
lowerback 25.037 -1.48971 7.44583
upperback 7.4386 -0.829522 0.186234
thorax -5.69628 -0.714254 -3.78903
lowerneck 5.67204 6.43466 6.27579
upperneck -9.94513 8.15648 -10.934
head -3.13644 4.32914 -4.65835
rclavicle 3.97569e-015 -2.22639e-014
rhumerus -50.9651 -19.7957 -47.7711
rradius 95.9136
rwrist -50.9754
rhand -10.2984 -31.1645
rfingers 7.12502
rthumb 15.6962 -60.5478
lclavicle 3.97569e-015 -2.22639e-014
lhumerus -100.149 19.8234 -33.4503
lradius 11.4992
lwrist -67.9433
lhand -15.4015 20.2611
lfingers 7.12502
lthumb 10.7775 49.9646
rfemur -15.1219 5.801 29.0551
rtibia 36.7064
rfoot -18.6308 6.02768
rtoes -10.6343
lfemur -44.2647 -0.221269 -9.75521
ltibia 48.2806
lfoot -4.70782 -4.99891
ltoes -21.4056
360
root -1.82476 17.5676 5.14617 520.831 -75.8315 -519.665
lowerback 24.4608 -1.75034 7.4083
upperback 7.15286 -1.15566 0.329802
thorax -5.76453 -0.863846 -3.51804
lowerneck 3.92213 4.84859 6.47518
upperneck -8.08992 6.09657 -10.4761
head -2.48763 3.21853 -4.39882
rclavicle -3.81667e-014 -2.38542e-014
rhumerus -50.4686 -19.5553 -47.8319
rradius 95.1743
rwrist -50.4199
rhand -10.3891 -31.0345
rfingers 7.12502
rthumb 15.6089 -60.4247
lclavicle -3.81667e-014 -2.38542e-014
lhumerus -96.7105 22.4969 -23.8934
lradius 11.9537
lwrist -58.8894
lhand -15.6155 20.0705
lfingers 7.12502
lthumb 10.5711 49.7846
rfemur -15.339 5.55244 28.8013
rtibia 36.9206
rfoot -18.9574 5.88541
rtoes -10.8068
lfemur -44.0175 0.636713 -11.1289
ltibia 52.2921
lfoot -4.432 -4.4262
ltoes -21.1716
361
root -1.89153 17.5913 5.18601 521.095 -76.329 -519.387
lowerback 23.4428 -1.99727 7.35891
upperback 6.67752 -1.47466 0.386513
thorax -5.81632 -1.00112 -3.34697
lowerneck 6.51912 3.92996 4.04544
upperneck -9.68355 4.88005 -7.75339
head -3.64608 2.64363 -3.25844
rclavicle 3.73715e-014 -1.17283e-014
rhumerus -50.4564 -19.2199 -47.8378
rradius 94.3626
rwrist -49.8072
rhand -10.5949 -30.788
rfingers 7.12502
rthumb 15.4107 -60.1936
lclavicle 3.73715e-014 -1.17283e-014
lhumerus -91.8889 24.5198 -12.9159
lradius 12.6315
lwrist -49.4298
lhand -16.0495 19.7856
lfingers 7.12502
lthumb 10.1524 49.5207
rfemur -15.787 5.24354 28.4066
rtibia 37.0321
rfoot -19.1505 5.85601
rtoes -10.6988
lfemur -43.8004 1.49289 -12.6368
ltibia 55.9111
lfoot -4.17134 -4.21644
ltoes -19.9056
362
root -1.95586 17.6184 5.21923 520.764 -76.7783 -518.378
lowerback 22.2359 -2.25517 7.40205
upperback 6.39036 -1.83301 0.454262
thorax -5.55923 -1.15194 -3.21925
lowerneck 5.63361 2.51343 3.9155
upperneck -8.20187 3.07484 -6.95236
head -3.52175 1.67153 -3.18342
rclavicle 2.88238e-015 -1.51076e-014
rhumerus -50.0337 -19.2269 -48.1078
rradius 93.2815
rwrist -49.2598
rhand -10.3384 -30.3194
rfingers 7.12502
rthumb 15.6578 -59.7058
lclavicle 2.88238e-015 -1.51076e-014
lhumerus -86.5603 26.2842 -2.04337
lradius 13.5609
lwrist -40.8661
lhand -16.3639 19.2786
lfingers 7.12502
lthumb 9.84911 49.0283
rfemur -16.3266 5.07728 28.236
rtibia 37.056
rfoot -18.9763 5.80045
rtoes -10.9268
lfemur -43.5243 2.51606 -13.941
ltibia 58.9592
lfoot -3.86869 -4.1781
ltoes -19.6497
363
root -2.02142 17.6449 5.2488 519.939 -77.1546 -516.865
lowerback 20.9959 -2.5556 7.46536
upperback 6.23462 -2.26975 0.523911
thorax -5.14136 -1.33991 -3.09421
lowerneck 5.79337 1.60041 2.45236
upperneck -8.36424 1.85616 -5.22411
head -3.69424 1.04492 -2.27227
rclavicle -5.29761e-014 6.75868e-015
rhumerus -49.1111 -19.3841 -48.69
rradius 91.8352
rwrist -48.58
rhand -9.47079 -29.5402
rfingers 7.12502
rthumb 16.4932 -58.8592
lclavicle -5.29761e-014 6.75868e-015
lhumerus -80.6833 27.4774 8.64014
lradius 14.7628
lwrist -32.9731
lhand -16.4504 19.0289
lfingers 7.12502
lthumb 9.76565 48.7825
rfemur -16.8362 4.98116 28.2149
rtibia 37.1047
rfoot -18.682 5.60778
rtoes -11.9213
lfemur -43.0268 3.64937 -15.0719
ltibia 61.2797
lfoot -3.58999 -4.22913
ltoes -22.1404
